<svg width="32" height="32" viewBox="0 0 32 32" fill="none" xmlns="http://www.w3.org/2000/svg">
<g clip-path="url(#clip0_37_94)">
<g clip-path="url(#clip1_37_94)">
<path fill-rule="evenodd" clip-rule="evenodd" d="M6.4 17.6C6.4 18.4487 6.06286 19.2626 5.46274 19.8627C4.86263 20.4629 4.04869 20.8 3.2 20.8C2.35131 20.8 1.53737 20.4629 0.937258 19.8627C0.337143 19.2626 0 18.4487 0 17.6C0 16.7513 0.337143 15.9374 0.937258 15.3373C1.53737 14.7371 2.35131 14.4 3.2 14.4C4.04869 14.4 4.86263 14.7371 5.46274 15.3373C6.06286 15.9374 6.4 16.7513 6.4 17.6ZM11.2 7.5856C11.2 8.64647 10.7786 9.66388 10.0284 10.414C9.27828 11.1642 8.26087 11.5856 7.2 11.5856C6.13913 11.5856 5.12172 11.1642 4.37157 10.414C3.62143 9.66388 3.2 8.64647 3.2 7.5856C3.2 6.52473 3.62143 5.50732 4.37157 4.75717C5.12172 4.00703 6.13913 3.5856 7.2 3.5856C8.26087 3.5856 9.27828 4.00703 10.0284 4.75717C10.7786 5.50732 11.2 6.52473 11.2 7.5856ZM10.4 26.1104C10.4 26.9591 10.0629 27.773 9.46274 28.3731C8.86263 28.9733 8.04869 29.3104 7.2 29.3104C6.35131 29.3104 5.53737 28.9733 4.93726 28.3731C4.33714 27.773 4 26.9591 4 26.1104C4 25.2617 4.33714 24.4478 4.93726 23.8477C5.53737 23.2475 6.35131 22.9104 7.2 22.9104C8.04869 22.9104 8.86263 23.2475 9.46274 23.8477C10.0629 24.4478 10.4 25.2617 10.4 26.1104ZM17.0896 29.6C17.0896 30.2365 16.8367 30.847 16.3867 31.2971C15.9366 31.7471 15.3261 32 14.6896 32C14.0531 32 13.4426 31.7471 12.9925 31.2971C12.5425 30.847 12.2896 30.2365 12.2896 29.6C12.2896 28.9635 12.5425 28.353 12.9925 27.9029C13.4426 27.4529 14.0531 27.2 14.6896 27.2C15.3261 27.2 15.9366 27.4529 16.3867 27.9029C16.8367 28.353 17.0896 28.9635 17.0896 29.6ZM22.4 4C22.4 5.06087 21.9786 6.07828 21.2284 6.82843C20.4783 7.57857 19.4609 8 18.4 8C17.3391 8 16.3217 7.57857 15.5716 6.82843C14.8214 6.07828 14.4 5.06087 14.4 4C14.4 2.93913 14.8214 1.92172 15.5716 1.17157C16.3217 0.421427 17.3391 0 18.4 0C19.4609 0 20.4783 0.421427 21.2284 1.17157C21.9786 1.92172 22.4 2.93913 22.4 4ZM23.6688 28.4576C23.6688 28.8819 23.5002 29.2889 23.2002 29.589C22.9001 29.889 22.4931 30.0576 22.0688 30.0576C21.6445 30.0576 21.2375 29.889 20.9374 29.589C20.6374 29.2889 20.4688 28.8819 20.4688 28.4576C20.4688 28.0333 20.6374 27.6263 20.9374 27.3262C21.2375 27.0262 21.6445 26.8576 22.0688 26.8576C22.4931 26.8576 22.9001 27.0262 23.2002 27.3262C23.5002 27.6263 23.6688 28.0333 23.6688 28.4576ZM32 12.8C32 14.073 31.4943 15.2939 30.5941 16.1941C29.6939 17.0943 28.473 17.6 27.2 17.6C25.927 17.6 24.7061 17.0943 23.8059 16.1941C22.9057 15.2939 22.4 14.073 22.4 12.8C22.4 11.527 22.9057 10.3061 23.8059 9.40589C24.7061 8.50571 25.927 8 27.2 8C28.473 8 29.6939 8.50571 30.5941 9.40589C31.4943 10.3061 32 11.527 32 12.8ZM27.2 24.8C27.2 25.0122 27.1157 25.2157 26.9657 25.3657C26.8157 25.5157 26.6122 25.6 26.4 25.6C26.1878 25.6 25.9843 25.5157 25.8343 25.3657C25.6843 25.2157 25.6 25.0122 25.6 24.8C25.6 24.5878 25.6843 24.3843 25.8343 24.2343C25.9843 24.0843 26.1878 24 26.4 24C26.6122 24 26.8157 24.0843 26.9657 24.2343C27.1157 24.3843 27.2 24.5878 27.2 24.8Z" fill="url(#paint0_linear_37_94)"/>
</g>
</g>
<defs>
<linearGradient id="paint0_linear_37_94" x1="23.4667" y1="4.8" x2="-4.53333" y2="32" gradientUnits="userSpaceOnUse">
<stop stop-color="#5CC4BA"/>
<stop offset="0.878125" stop-color="#128B7F"/>
</linearGradient>
<clipPath id="clip0_37_94">
<rect width="32" height="32" fill="white"/>
</clipPath>
<clipPath id="clip1_37_94">
<rect width="32" height="32" fill="white" transform="translate(32) rotate(90)"/>
</clipPath>
</defs>
</svg>
