<svg width="16" height="16" viewBox="0 0 16 16" fill="none" xmlns="http://www.w3.org/2000/svg">
<g clip-path="url(#clip0_37_103)">
<g clip-path="url(#clip1_37_103)">
<path fill-rule="evenodd" clip-rule="evenodd" d="M3.2 8.8C3.2 9.22435 3.03143 9.63131 2.73137 9.93137C2.43131 10.2314 2.02435 10.4 1.6 10.4C1.17565 10.4 0.768687 10.2314 0.468629 9.93137C0.168571 9.63131 0 9.22435 0 8.8C0 8.37565 0.168571 7.96869 0.468629 7.66863C0.768687 7.36857 1.17565 7.2 1.6 7.2C2.02435 7.2 2.43131 7.36857 2.73137 7.66863C3.03143 7.96869 3.2 8.37565 3.2 8.8ZM5.6 3.7928C5.6 4.32323 5.38929 4.83194 5.01421 5.20701C4.63914 5.58209 4.13043 5.7928 3.6 5.7928C3.06957 5.7928 2.56086 5.58209 2.18579 5.20701C1.81071 4.83194 1.6 4.32323 1.6 3.7928C1.6 3.26237 1.81071 2.75366 2.18579 2.37859C2.56086 2.00351 3.06957 1.7928 3.6 1.7928C4.13043 1.7928 4.63914 2.00351 5.01421 2.37859C5.38929 2.75366 5.6 3.26237 5.6 3.7928ZM5.2 13.0552C5.2 13.4795 5.03143 13.8865 4.73137 14.1866C4.43131 14.4866 4.02435 14.6552 3.6 14.6552C3.17565 14.6552 2.76869 14.4866 2.46863 14.1866C2.16857 13.8865 2 13.4795 2 13.0552C2 12.6309 2.16857 12.2239 2.46863 11.9238C2.76869 11.6238 3.17565 11.4552 3.6 11.4552C4.02435 11.4552 4.43131 11.6238 4.73137 11.9238C5.03143 12.2239 5.2 12.6309 5.2 13.0552ZM8.5448 14.8C8.5448 15.1183 8.41837 15.4235 8.19333 15.6485C7.96828 15.8736 7.66306 16 7.3448 16C7.02654 16 6.72132 15.8736 6.49627 15.6485C6.27123 15.4235 6.1448 15.1183 6.1448 14.8C6.1448 14.4817 6.27123 14.1765 6.49627 13.9515C6.72132 13.7264 7.02654 13.6 7.3448 13.6C7.66306 13.6 7.96828 13.7264 8.19333 13.9515C8.41837 14.1765 8.5448 14.4817 8.5448 14.8ZM11.2 2C11.2 2.53043 10.9893 3.03914 10.6142 3.41421C10.2391 3.78929 9.73043 4 9.2 4C8.66957 4 8.16086 3.78929 7.78579 3.41421C7.41071 3.03914 7.2 2.53043 7.2 2C7.2 1.46957 7.41071 0.960859 7.78579 0.585786C8.16086 0.210714 8.66957 0 9.2 0C9.73043 0 10.2391 0.210714 10.6142 0.585786C10.9893 0.960859 11.2 1.46957 11.2 2ZM11.8344 14.2288C11.8344 14.441 11.7501 14.6445 11.6001 14.7945C11.4501 14.9445 11.2466 15.0288 11.0344 15.0288C10.8222 15.0288 10.6187 14.9445 10.4687 14.7945C10.3187 14.6445 10.2344 14.441 10.2344 14.2288C10.2344 14.0166 10.3187 13.8131 10.4687 13.6631C10.6187 13.5131 10.8222 13.4288 11.0344 13.4288C11.2466 13.4288 11.4501 13.5131 11.6001 13.6631C11.7501 13.8131 11.8344 14.0166 11.8344 14.2288ZM16 6.4C16 7.03652 15.7471 7.64697 15.2971 8.09706C14.847 8.54714 14.2365 8.8 13.6 8.8C12.9635 8.8 12.353 8.54714 11.9029 8.09706C11.4529 7.64697 11.2 7.03652 11.2 6.4C11.2 5.76348 11.4529 5.15303 11.9029 4.70294C12.353 4.25286 12.9635 4 13.6 4C14.2365 4 14.847 4.25286 15.2971 4.70294C15.7471 5.15303 16 5.76348 16 6.4ZM13.6 12.4C13.6 12.5061 13.5579 12.6078 13.4828 12.6828C13.4078 12.7579 13.3061 12.8 13.2 12.8C13.0939 12.8 12.9922 12.7579 12.9172 12.6828C12.8421 12.6078 12.8 12.5061 12.8 12.4C12.8 12.2939 12.8421 12.1922 12.9172 12.1172C12.9922 12.0421 13.0939 12 13.2 12C13.3061 12 13.4078 12.0421 13.4828 12.1172C13.5579 12.1922 13.6 12.2939 13.6 12.4Z" fill="url(#paint0_linear_37_103)"/>
</g>
</g>
<defs>
<linearGradient id="paint0_linear_37_103" x1="11.7333" y1="2.4" x2="-2.26667" y2="16" gradientUnits="userSpaceOnUse">
<stop stop-color="#5CC4BA"/>
<stop offset="0.878125" stop-color="#128B7F"/>
</linearGradient>
<clipPath id="clip0_37_103">
<rect width="16" height="16" fill="white"/>
</clipPath>
<clipPath id="clip1_37_103">
<rect width="16" height="16" fill="white" transform="translate(16) rotate(90)"/>
</clipPath>
</defs>
</svg>
